<?xml version="1.0" encoding="UTF-8" standalone="no"?>
<!-- Created with Inkscape (http://www.inkscape.org/) -->

<svg
   version="1.1"
   id="svg721"
   width="2639.6062"
   height="1993.7643"
   viewBox="0 0 2639.6062 1993.7643"
   sodipodi:docname="sketches.svg"
   inkscape:version="1.2.2 (b0a8486541, 2022-12-01)"
   xmlns:inkscape="http://www.inkscape.org/namespaces/inkscape"
   xmlns:sodipodi="http://sodipodi.sourceforge.net/DTD/sodipodi-0.dtd"
   xmlns="http://www.w3.org/2000/svg"
   xmlns:svg="http://www.w3.org/2000/svg">
  <defs
     id="defs725">
    <clipPath
       clipPathUnits="userSpaceOnUse"
       id="clipPath739">
      <path
         d="M 0,-2.82099e-5 H 841.68 V 595.43997 H 0 Z"
         id="path737" />
    </clipPath>
  </defs>
  <sodipodi:namedview
     id="namedview723"
     pagecolor="#505050"
     bordercolor="#eeeeee"
     borderopacity="1"
     inkscape:showpageshadow="0"
     inkscape:pageopacity="0"
     inkscape:pagecheckerboard="0"
     inkscape:deskcolor="#505050"
     showgrid="false"
     inkscape:zoom="0.27427197"
     inkscape:cx="1555.0258"
     inkscape:cy="1124.7959"
     inkscape:window-width="1920"
     inkscape:window-height="1080"
     inkscape:window-x="0"
     inkscape:window-y="0"
     inkscape:window-maximized="1"
     inkscape:current-layer="g729">
    <inkscape:page
       x="0"
       y="0"
       id="page727"
       width="2639.6062"
       height="1993.7643" />
  </sodipodi:namedview>
  <g
     id="g729"
     inkscape:groupmode="layer"
     inkscape:label="Page 1"
     transform="matrix(1.3333333,0,0,-1.3333333,0,780.67691)">
    <g
       id="g25119"
       inkscape:label="SCHEME"
       transform="matrix(1.0725766,0,0,1.0725766,406.72737,-139.4507)">
      <g
         id="g1101"
         transform="matrix(1.1202213,0,0,-1.1202213,-15.728957,477.17448)">
        <path
           d="m 952.9397,558.1971 c -50.6855,-12.1867 -81.8949,-63.1547 -69.7082,-113.8402 12.1867,-50.6855 63.1547,-81.8949 113.8401,-69.7082 50.6854,12.1867 81.8954,63.1547 69.7084,113.8401 -12.187,50.6855 -63.155,81.895 -113.8403,69.7083 z"
           style="fill:none;stroke:#fcfcfc;stroke-width:8.46096;stroke-linecap:butt;stroke-linejoin:miter;stroke-miterlimit:10;stroke-dasharray:none;stroke-opacity:1"
           id="path1103" />
      </g>
      <g
         id="g1105"
         transform="matrix(1.1202213,0,0,-1.1202213,-15.728957,477.17448)">
        <path
           d="m 939.9947,384.5369 c 20.8284,34.5065 10.2805,82.1661 -31.6439,142.9788"
           style="fill:none;stroke:#fcfcfc;stroke-width:8.46096;stroke-linecap:round;stroke-linejoin:round;stroke-miterlimit:10;stroke-dasharray:none;stroke-opacity:1"
           id="path1107" />
      </g>
      <g
         id="g1109"
         transform="matrix(1.1202213,0,0,-1.1202213,-15.728957,477.17448)">
        <path
           d="m 927.9143,543.7592 47.3875,-69.0131"
           style="fill:none;stroke:#fcfcfc;stroke-width:8.46096;stroke-linecap:round;stroke-linejoin:round;stroke-miterlimit:10;stroke-dasharray:none;stroke-opacity:1"
           id="path1111" />
      </g>
      <g
         id="g1113"
         transform="matrix(1.1202213,0,0,-1.1202213,-15.728957,477.17448)">
        <path
           d="m 975.3018,474.7461 41.5732,75.1064"
           style="fill:none;stroke:#fcfcfc;stroke-width:8.46096;stroke-linecap:round;stroke-linejoin:round;stroke-miterlimit:10;stroke-dasharray:none;stroke-opacity:1"
           id="path1115" />
      </g>
      <g
         id="g1117"
         transform="matrix(1.1202213,0,0,-1.1202213,-15.728957,477.17448)">
        <path
           d="M 1043.029,528.9539 962.8128,375.7626"
           style="fill:none;stroke:#fcfcfc;stroke-width:8.27303;stroke-linecap:round;stroke-linejoin:round;stroke-miterlimit:10;stroke-dasharray:none;stroke-opacity:1"
           id="path1119" />
      </g>
    </g>
    <g
       id="g25107"
       inkscape:label="C"
       transform="matrix(1.0267124,0.31029362,-0.31029362,1.0267124,-1305.0518,-1498.5084)">
      <path
         d="m 1858.6361,372.01185 c 2.5898,-2.8204 4.9341,-5.86548 6.9959,-9.0921 0.4304,-0.67301 0.9617,-1.24252 1.5616,-1.70112 2.7266,1.76642 5.479,3.49382 8.2706,5.15674 0.014,0.008 0.028,0.0164 0.043,0.0251 0.7508,0.44731 1.4996,0.89872 2.2453,1.35465 -0.1542,0.80198 -0.4604,1.58877 -0.927,2.31867 -2.4783,3.87725 -5.294,7.53599 -8.4076,10.92527 -2.4826,2.70005 -6.6852,2.8777 -9.3864,0.39638 -2.7001,-2.48236 -2.8775,-6.68349 -0.3952,-9.38354 z m 6.9959,-9.0921 c 0.4089,-0.63954 0.8067,-1.28647 1.1932,-1.94017 2.8471,1.84939 5.7217,3.65791 8.639,5.39579 0.014,0.008 0.028,0.0164 0.043,0.0251 0.8736,0.52063 1.7442,1.04638 2.6111,1.57871 -0.4202,0.70505 -0.8511,1.40332 -1.2928,2.09461 -1.9764,3.09231 -6.0826,3.99473 -9.1747,2.01965 -3.0899,-1.97365 -3.9935,-6.08133 -2.0186,-9.17364 z m 2.784,-71.47997 c 0.1358,-0.30683 0.2956,-0.60544 0.4798,-0.89317 1.0895,-1.70625 2.8836,-2.80479 4.8597,-3.02413 -1.7871,1.29549 -3.5665,2.60188 -5.3395,3.9173 z m 4.5803,-12.01396 c 1.4226,1.85966 2.7625,3.78155 4.0144,5.7595 -0.5377,0.38097 -1.0733,0.76399 -1.6077,1.14804 -0.012,0.0103 -0.026,0.0185 -0.039,0.0281 -2.981,2.14328 -5.9394,4.31942 -8.8814,6.51836 -0.027,0.0205 -0.054,0.0407 -0.081,0.0612 -0.048,0.0359 -0.096,0.0717 -0.1433,0.10762 -1.1748,-1.91368 -2.4473,-3.76718 -3.8118,-5.55105 -2.2299,-2.912 -1.6752,-7.08253 1.2395,-9.31104 2.912,-2.22748 7.0827,-1.67277 9.31,1.23923 z m -9.2987,-10.17587 c 3.3892,3.11367 6.5023,6.52144 9.2987,10.17587 1.4423,1.88615 1.7691,4.39623 0.8582,6.58716 -0.9118,2.19216 -2.9218,3.73041 -5.2746,4.03518 -2.353,0.30622 -4.6907,-0.66438 -6.1331,-2.55053 -2.3271,-3.03974 -4.9172,-5.8776 -7.7364,-8.46613 -2.7013,-2.48256 -2.8789,-6.68492 -0.3966,-9.38497 2.4826,-2.70128 6.6837,-2.87914 9.3838,-0.39658 z m -10.9239,-8.40903 c 3.8771,2.47701 7.5372,5.29413 10.9251,8.4078 1.7475,1.60602 2.5051,4.02143 1.988,6.33743 -0.5167,2.3162 -2.2301,4.18018 -4.4948,4.89015 -2.2632,0.71121 -4.7353,0.15855 -6.4816,-1.44603 -2.8202,-2.59121 -5.864,-4.93432 -9.0907,-6.99606 -1.9993,-1.27743 -3.1656,-3.52525 -3.059,-5.89629 0.1078,-2.37084 1.4709,-4.50426 3.577,-5.59664 2.1071,-1.09341 4.6365,-0.97923 6.636,0.29964 z m -12.2195,-6.38425 c 4.249,1.76765 8.3421,3.906 12.2195,6.38425 3.0909,1.97487 3.9945,6.08256 2.0195,9.17364 -1.9749,3.09088 -6.0824,3.99452 -9.1735,2.01965 -3.2266,-2.06196 -6.6319,-3.84132 -10.1676,-5.31118 -3.386,-1.40866 -4.99,-5.29618 -3.5813,-8.68362 1.4086,-3.38743 5.2961,-4.9912 8.6834,-3.58274 z"
         style="fill:#fcfcfc;fill-opacity:1;fill-rule:nonzero;stroke:none;stroke-width:2.05374"
         id="path1121" />
      <g
         id="g1123"
         transform="matrix(1.1202213,0,0,-1.1202213,724.32866,1121.2236)">
        <path
           d="m 994.1566,768.2717 c -3.4828,1.4486 -7.065,2.5837 -10.7466,3.4054 -3.6814,0.8217 -7.4063,1.3175 -11.1745,1.4874 -3.7683,0.17 -7.5226,0.0114 -11.2631,-0.4757 -3.7405,-0.4869 -7.4104,-1.295 -11.0095,-2.4241 -3.5991,-1.1291 -7.0728,-2.5622 -10.4212,-4.2991 -3.3483,-1.737 -6.5205,-3.7515 -9.5163,-6.0435 -2.9959,-2.292 -5.77,-4.8267 -8.3224,-7.604 -2.5523,-2.7775 -4.8441,-5.7554 -6.8754,-8.9338 -2.0313,-3.1785 -3.7712,-6.5092 -5.2197,-9.992 -1.4485,-3.4829 -2.5836,-7.0651 -3.4054,-10.7466 -0.8217,-3.6814 -1.3175,-7.4063 -1.4874,-11.1745 -0.1699,-3.7683 -0.0114,-7.5227 0.4756,-11.2632 0.487,-3.7405 1.2951,-7.4103 2.4243,-11.0094 1.1291,-3.5991 2.5622,-7.0728 4.2991,-10.4211 1.7369,-3.3485 3.7514,-6.5206 6.0434,-9.5165 2.292,-2.9958 4.8267,-5.7699 7.604,-8.3223 2.7775,-2.5523 5.7555,-4.8442 8.9339,-6.8754 3.1784,-2.0313 6.5091,-3.7712 9.9919,-5.2197 3.4829,-1.4485 7.0651,-2.5836 10.7467,-3.4054 3.6814,-0.8217 7.4063,-1.3175 11.1746,-1.4873 3.7681,-0.17 7.5225,-0.0114 11.263,0.4756 3.7405,0.487 7.4103,1.295 11.0094,2.4241 3.5992,1.1292 7.0729,2.5622 10.4212,4.2992"
           style="fill:none;stroke:#fcfcfc;stroke-width:11.8585;stroke-linecap:round;stroke-linejoin:round;stroke-miterlimit:10;stroke-dasharray:none;stroke-opacity:1"
           id="path1125" />
      </g>
      <path
         d="m 1840.485,385.89636 c 3.3991,-1.76231 6.6422,-3.82242 9.6833,-6.14951 2.9135,-2.22851 7.0815,-1.6738 9.3115,1.23964 2.2287,2.91322 1.674,7.08252 -1.2394,9.31124 -3.6557,2.79637 -7.5533,5.27194 -11.6386,7.39079 -2.1059,1.09238 -4.6353,0.97799 -6.6348,-0.29944 -1.9993,-1.27742 -3.1656,-3.52545 -3.059,-5.89628 0.1066,-2.36961 1.4709,-4.50324 3.577,-5.59644 z m 9.6833,-6.14951 c 3.0414,-2.32565 5.8766,-4.91727 8.4678,-7.73767 2.4826,-2.70005 6.6835,-2.8777 9.385,-0.39534 2.7013,2.48133 2.8789,6.68369 0.3966,9.38517 -3.1139,3.38785 -6.5227,6.50235 -10.1773,9.29872 -1.8848,1.44213 -4.3961,1.76888 -6.587,0.85702 -2.1909,-0.91063 -3.7292,-2.92185 -4.0354,-5.27462 -0.3074,-2.35296 0.6656,-4.69094 2.5503,-6.13328 z"
         style="fill:#fcfcfc;fill-opacity:1;fill-rule:nonzero;stroke:none;stroke-width:2.05374"
         id="path1127" />
      <g
         id="g1129"
         transform="matrix(1.1202213,0,0,-1.1202213,724.32866,1121.2236)">
        <path
           d="m 972.1329,740.9492 c -3.6726,0.1374 -7.2578,-0.3574 -10.7559,-1.4844 -3.498,-1.1268 -6.6979,-2.8179 -9.5996,-5.0733 -2.9016,-2.2554 -5.3301,-4.939 -7.2854,-8.0508 -1.9552,-3.1118 -3.3194,-6.4642 -4.0924,-10.057 -0.7731,-3.5929 -0.9085,-7.2096 -0.4061,-10.8502 0.5024,-3.6406 1.6122,-7.0855 3.3294,-10.3347 1.7172,-3.2492 3.9384,-6.1067 6.6635,-8.5727 2.7248,-2.4659 5.7893,-4.3915 9.1933,-5.7768 3.4042,-1.3852 6.9425,-2.1465 10.6149,-2.2839"
           style="fill:none;stroke:#fcfcfc;stroke-width:11.8585;stroke-linecap:round;stroke-linejoin:round;stroke-miterlimit:10;stroke-dasharray:none;stroke-opacity:1"
           id="path1131" />
      </g>
      <path
         d="m 1810.961,354.5561 c 3.3053,0.12302 6.6153,-0.33291 9.7643,-1.34766 3.4914,-1.12586 7.2329,0.79295 8.3587,4.28553 1.1247,3.49156 -0.7939,7.23307 -4.2853,8.35872 -4.6213,1.48793 -9.4841,2.1591 -14.3347,1.97775 -3.6655,-0.13678 -6.5255,-3.21985 -6.3887,-6.88557 0.1369,-3.66551 3.2202,-6.52699 6.8857,-6.38877 z m 9.7643,-1.34766 c 3.1488,-1.01435 6.1021,-2.5758 8.7138,-4.60633 2.8968,-2.25029 7.0688,-1.72761 9.3203,1.16919 2.2517,2.89536 1.7274,7.06856 -1.1677,9.32028 -3.8335,2.97915 -8.1733,5.27215 -12.793,6.76111 -2.2595,0.72682 -4.7341,0.19469 -6.4943,-1.39736 -1.7592,-1.59206 -2.536,-4.00233 -2.0369,-6.32223 0.5003,-2.31991 2.1983,-4.19785 4.4578,-4.92466 z m 8.7138,-4.60633 c 2.6118,-2.0291 4.853,-4.50673 6.6131,-7.30762 0.406,-0.6459 0.9049,-1.19815 1.4684,-1.64977 0.902,0.76276 1.8116,1.51546 2.7163,2.26856 2.4139,2.01144 4.8918,3.94483 7.4129,5.8203 -0.1039,0.21318 -0.2201,0.42266 -0.3493,0.62783 -2.583,4.11117 -5.8768,7.75101 -9.7088,10.73017 -2.8968,2.25028 -7.07,1.7276 -9.3203,-1.1692 -2.2517,-2.89536 -1.7291,-7.06876 1.1677,-9.32027 z m 6.6118,-7.30762 c 0.3993,-0.63419 0.7727,-1.28379 1.1193,-1.94674 1.0168,0.86463 2.0449,1.71488 3.0667,2.56553 2.422,2.01801 4.9084,3.95756 7.438,5.83919 -0.1234,0.20394 -0.2485,0.40706 -0.3756,0.60894 -1.9521,3.10772 -6.0505,4.04196 -9.1583,2.09255 -3.1062,-1.95331 -4.0407,-6.05319 -2.0901,-9.15947 z m 1.558,-27.37367 c -0.1587,-0.33106 -0.3239,-0.65904 -0.4956,-0.98374 -1.7148,-3.24593 -0.475,-7.26325 2.7695,-8.97833 3.033,-1.60438 6.7472,-0.62248 8.6154,2.16731 -0.9703,0.67835 -1.9422,1.35383 -2.9165,2.02581 -2.3821,1.64176 -4.7614,3.29502 -7.0525,5.06082 -0.3066,0.23618 -0.6135,0.47195 -0.9203,0.70813 z m 2.3684,-18.61858 c 3.4248,3.0993 6.3197,6.7603 8.5458,10.80657 -0.9784,0.6841 -1.9589,1.36533 -2.9414,2.04306 -2.3821,1.64176 -4.7614,3.29502 -7.0525,5.06082 -0.2771,0.21359 -0.5545,0.42677 -0.832,0.63995 -0.2156,-0.28424 -0.4113,-0.58983 -0.5839,-0.91556 -1.5448,-2.92637 -3.5969,-5.56501 -6.0503,-7.78428 -2.7193,-2.46223 -2.9276,-6.66192 -0.468,-9.38251 2.462,-2.71915 6.6617,-2.93007 9.3823,-0.46805 z m -12.2504,-7.69802 c 4.4957,1.82885 8.6526,4.44141 12.2516,7.69802 2.7194,2.46079 2.9291,6.66192 0.4683,9.38107 -2.4623,2.72059 -6.6619,2.93028 -9.3825,0.46825 -2.452,-2.21927 -5.281,-3.99637 -8.345,-5.24401 -2.1975,-0.89399 -3.7522,-2.89249 -4.0763,-5.24422 -0.324,-2.3503 0.6299,-4.69588 2.5033,-6.15218 1.8745,-1.45631 4.3819,-1.80216 6.5806,-0.90693 z m -14.1469,-3.04385 c 4.8517,0.18114 9.6501,1.21376 14.1469,3.04385 3.3975,1.38196 5.0309,5.25777 3.6479,8.65548 -1.382,3.3975 -5.258,5.03084 -8.6555,3.64785 -3.064,-1.24642 -6.3298,-1.94859 -9.6361,-2.07264 -3.6658,-0.13698 -6.5258,-3.22005 -6.3888,-6.88577 0.1368,-3.66572 3.22,-6.52699 6.8856,-6.38877 z"
         style="fill:#fcfcfc;fill-opacity:1;fill-rule:nonzero;stroke:none;stroke-width:2.05374"
         id="path1133" />
      <path
         d="m 1855.8833,353.61097 c -0.01,1.25545 -0.3697,2.52302 -1.1187,3.64497 -2.0404,3.04899 -6.1633,3.86945 -9.2133,1.83317 -2.8623,-1.91367 -5.7233,-3.82611 -8.5856,-5.73855 -3.0488,-2.03629 -3.8693,-6.16307 -1.8305,-9.21205 1.0451,-1.56331 2.638,-2.54089 4.3533,-2.84771 0.2495,0.20742 0.4991,0.41485 0.7482,0.62228 3.944,3.28619 8.0578,6.36392 12.2522,9.32192 0.021,0.0144 0.043,0.03 0.064,0.0448 1.1076,0.78083 2.2175,1.55817 3.3302,2.3312 z m 8.583,5.82317 c 0,0.10063 -0.01,0.20127 -0.012,0.30211 -0.1552,2.36857 -1.5631,4.47283 -3.692,5.5227 -2.1266,1.04864 -4.6533,0.88332 -6.6272,-0.43518 -2.8623,-1.91224 -5.7231,-3.82489 -8.5827,-5.73466 -3.0517,-2.03895 -3.8722,-6.16306 -1.8332,-9.21328 0.8354,-1.25031 2.0211,-2.12644 3.3396,-2.58421 1.7902,1.34211 3.603,2.65404 5.4311,3.94338 0.021,0.0144 0.043,0.03 0.064,0.0448 3.9333,2.77296 7.8968,5.50238 11.9131,8.15437 z m 8.5836,5.48163 c 0.025,1.31029 -0.3356,2.64111 -1.1183,3.81359 -2.0389,3.05022 -6.1631,3.86945 -9.2147,1.8305 -2.8609,-1.90998 -5.7205,-3.82221 -8.5828,-5.73609 -3.0502,-2.03875 -3.8694,-6.16163 -1.8329,-9.21184 0.7537,-1.12751 1.7923,-1.95023 2.9563,-2.43656 3.2131,2.23919 6.4492,4.44409 9.7212,6.59661 2.6647,1.75348 5.3508,3.47616 8.0712,5.14379 z"
         style="fill:#fcfcfc;fill-opacity:1;fill-rule:nonzero;stroke:none;stroke-width:2.05374"
         id="path1135" />
      <path
         d="m 1839.1899,300.09547 c 2.4725,-1.84508 4.945,-3.68873 7.4201,-5.53401 2.9389,-2.19401 7.1021,-1.58692 9.2934,1.35444 0.903,1.20965 1.3317,2.62653 1.3183,4.02779 -0.337,0.23968 -0.6736,0.47976 -1.01,0.72046 -3.5267,2.51993 -7.0624,5.02755 -10.6302,7.48772 -1.6382,1.12935 -3.2757,2.26404 -4.8836,3.43714 -0.055,-0.0218 -0.1094,-0.0444 -0.1638,-0.0678 -2.1809,-0.93877 -3.6921,-2.96786 -3.9714,-5.32453 -0.2768,-2.35687 0.7232,-4.68334 2.6272,-6.10124 z m 7.4201,-5.53401 c 2.4725,-1.84508 4.945,-3.68995 7.4202,-5.5338 2.9389,-2.19154 7.1018,-1.58713 9.2936,1.35444 0.8736,1.17125 1.3031,2.53575 1.3181,3.89245 -1.5972,1.22609 -3.1729,2.47989 -4.723,3.76451 -1.2399,0.86914 -2.4756,1.74444 -3.7072,2.62509 -2.5851,1.84713 -5.175,3.68748 -7.7786,5.50751 -0.1612,-0.055 -0.3208,-0.11645 -0.4787,-0.18443 -2.1796,-0.93753 -3.6922,-2.96786 -3.9715,-5.32452 -0.2768,-2.35687 0.7233,-4.68314 2.6271,-6.10125 z m 7.4202,-5.5338 c 2.4727,-1.84508 4.945,-3.68892 7.4202,-5.534 2.9389,-2.19155 7.1008,-1.58693 9.2933,1.35464 0.8768,1.17515 1.3066,2.545 1.3187,3.90642 -1.8676,1.3643 -3.7269,2.7401 -5.5798,4.12514 -0.027,0.0205 -0.054,0.0407 -0.081,0.0612 -2.202,1.6471 -4.3662,3.3439 -6.483,5.098 -1.2399,0.86914 -2.4756,1.74444 -3.7072,2.62509 -0.029,0.0205 -0.057,0.0409 -0.086,0.0612 -1.3328,-0.39103 -2.5548,-1.20185 -3.4498,-2.40165 -2.1941,-2.94157 -1.587,-7.10182 1.3544,-9.29604 z"
         style="fill:#fcfcfc;fill-opacity:1;fill-rule:nonzero;stroke:none;stroke-width:2.05374"
         id="path1137" />
      <g
         id="g1139"
         transform="matrix(1.1202213,0,0,-1.1202213,724.32866,1121.2236)">
        <path
           d="m 877.321,662.9245 -0.0302,98.0085"
           style="fill:none;stroke:#fcfcfc;stroke-width:11.8585;stroke-linecap:round;stroke-linejoin:round;stroke-miterlimit:10;stroke-dasharray:none;stroke-opacity:1"
           id="path1141" />
      </g>
      <g
         id="g1143"
         transform="matrix(1.1202213,0,0,-1.1202213,724.32866,1121.2236)">
        <path
           d="m 1057.048,661.8284 -0.03,95.8135"
           style="fill:none;stroke:#fcfcfc;stroke-width:11.8585;stroke-linecap:round;stroke-linejoin:round;stroke-miterlimit:10;stroke-dasharray:none;stroke-opacity:1"
           id="path1145" />
      </g>
      <g
         id="g1147"
         transform="matrix(1.1202213,0,0,-1.1202213,724.32866,1121.2236)">
        <path
           d="M 879.4703,660.7927 967.318,601.9862"
           style="fill:none;stroke:#fcfcfc;stroke-width:11.8585;stroke-linecap:round;stroke-linejoin:round;stroke-miterlimit:10;stroke-dasharray:none;stroke-opacity:1"
           id="path1149" />
      </g>
      <g
         id="g1151"
         transform="matrix(1.1202213,0,0,-1.1202213,724.32866,1121.2236)">
        <path
           d="m 967.318,601.9862 90.005,57.3474"
           style="fill:none;stroke:#fcfcfc;stroke-width:11.8585;stroke-linecap:round;stroke-linejoin:round;stroke-miterlimit:10;stroke-dasharray:none;stroke-opacity:1"
           id="path1153" />
      </g>
      <g
         id="g1155"
         transform="matrix(1.1202213,0,0,-1.1202213,724.32866,1121.2236)">
        <path
           d="m 877.2906,760.933 91.1028,51.4386"
           style="fill:none;stroke:#fcfcfc;stroke-width:11.8585;stroke-linecap:round;stroke-linejoin:round;stroke-miterlimit:10;stroke-dasharray:none;stroke-opacity:1"
           id="path1157" />
      </g>
      <g
         id="g1159"
         transform="matrix(1.1202213,0,0,-1.1202213,724.32866,1121.2236)">
        <path
           d="m 968.3934,812.3716 88.6246,-54.7298"
           style="fill:none;stroke:#fcfcfc;stroke-width:11.8585;stroke-linecap:round;stroke-linejoin:round;stroke-miterlimit:10;stroke-dasharray:none;stroke-opacity:1"
           id="path1161" />
      </g>
    </g>
    <g
       id="g25135"
       inkscape:label="haskell"
       transform="matrix(-0.3149549,-1.0252921,1.0252921,-0.3149549,1270.3601,1263.9271)">
      <g
         id="g1163"
         transform="matrix(1.1202213,0,0,-1.1202213,-255.58778,799.77228)">
        <path
           d="m 1089.296,366.4765 h 41.032 l 30.766,98.4769 -42.323,98.6109 H 1074.7"
           style="fill:none;stroke:#fcfcfc;stroke-width:10.3937;stroke-linecap:round;stroke-linejoin:round;stroke-miterlimit:10;stroke-dasharray:none;stroke-opacity:1"
           id="path1165" />
      </g>
      <g
         id="g1167"
         transform="matrix(1.1202213,0,0,-1.1202213,-263.35954,799.75359)">
        <path
           d="m 1130.328,366.4765 h -47.275"
           style="fill:none;stroke:#fcfcfc;stroke-width:10.3937;stroke-linecap:round;stroke-linejoin:round;stroke-miterlimit:10;stroke-dasharray:none;stroke-opacity:1"
           id="path1169" />
      </g>
      <g
         id="g1171"
         transform="matrix(1.1202213,0,0,-1.1202213,-255.58778,799.77228)">
        <path
           d="m 1074.7,563.5643 26.841,-98.3838 -25.551,-96.753"
           style="fill:none;stroke:#fcfcfc;stroke-width:10.3937;stroke-linecap:round;stroke-linejoin:round;stroke-miterlimit:10;stroke-dasharray:none;stroke-opacity:1"
           id="path1173" />
      </g>
      <g
         id="g1175"
         transform="matrix(1.1202213,0,0,-1.1202213,-90.045302,1055.8)">
        <path
           d="m 992.9993,791.7017 48.2547,-92.5724 -38.105,-101.3671 h 58.599 l 83.662,198.2492 h -56.203 l -15.25,-36.7018 -30.386,32.2321 h -39.896"
           style="fill:none;stroke:#fcfcfc;stroke-width:10.3937;stroke-linecap:round;stroke-linejoin:round;stroke-miterlimit:10;stroke-dasharray:none;stroke-opacity:1"
           id="path1177" />
      </g>
      <g
         id="g1179"
         transform="matrix(1.1202213,0,0,-1.1202213,-90.045302,1055.8)">
        <path
           d="m 992.9993,791.7017 10.6757,-0.16"
           style="fill:none;stroke:#fcfcfc;stroke-width:10.3937;stroke-linecap:round;stroke-linejoin:round;stroke-miterlimit:10;stroke-dasharray:none;stroke-opacity:1"
           id="path1181" />
      </g>
      <g
         id="g1183"
         transform="matrix(1.1202213,0,0,-1.1202213,-90.045302,1055.8)">
        <path
           d="m 1124.369,695.7958 13.119,29.8167 h 42.261 v -29.8167 h -55.38"
           style="fill:none;stroke:#fcfcfc;stroke-width:10.3937;stroke-linecap:round;stroke-linejoin:round;stroke-miterlimit:10;stroke-dasharray:none;stroke-opacity:1"
           id="path1185" />
      </g>
      <g
         id="g1187"
         transform="matrix(1.1202213,0,0,-1.1202213,-90.045302,1055.8)">
        <path
           d="m 1119.24,678.9199 h 60.468 v -32.7596 h -74.076 l 13.608,32.7596"
           style="fill:none;stroke:#fcfcfc;stroke-width:10.3937;stroke-linecap:round;stroke-linejoin:round;stroke-miterlimit:10;stroke-dasharray:none;stroke-opacity:1"
           id="path1189" />
      </g>
    </g>
    <g
       id="g25161"
       inkscape:label="nandgate"
       transform="matrix(-0.38877658,-0.9996366,0.9996366,-0.38877658,630.04162,56.114326)">
      <g
         id="g1191"
         transform="matrix(1.1202213,0,0,-1.1202213,-15.728957,477.17448)">
        <path
           d="m 98.97288,520.98 c -0.69927,-0.9681 -0.9873,-1.6698 -0.86412,-2.1049 0.08588,-0.3034 0.49233,-0.5946 1.21936,-0.8737 0.72698,-0.279 1.81818,-0.5496 3.27358,-0.8116 1.4554,-0.2619 3.3437,-0.4694 5.6649,-0.6224 2.3211,-0.153 4.8364,-0.2737 7.5458,-0.3622 2.7094,-0.0884 5.5738,-0.2882 8.5931,-0.5994 3.0193,-0.3112 5.9559,-0.7262 8.8096,-1.245 2.8538,-0.5188 5.457,-1.009 7.8095,-1.4705 2.3526,-0.4615 4.7242,-0.8324 7.1148,-1.1127 2.3906,-0.2802 5.4283,-0.5027 9.113,-0.6677 3.6847,-0.1649 6.1624,-0.2871 7.4331,-0.3667 1.2708,-0.0795 2.5432,-0.2202 3.8172,-0.422 1.2741,-0.2019 2.2689,-0.4865 2.9845,-0.8539"
           style="fill:none;stroke:#fcfcfc;stroke-width:10.3937;stroke-linecap:round;stroke-linejoin:round;stroke-miterlimit:10;stroke-dasharray:none;stroke-opacity:1"
           id="path1193" />
      </g>
      <g
         id="g1195"
         transform="matrix(1.1202213,0,0,-1.1202213,-15.728957,477.17448)">
        <path
           d="m 98.5599,585.0806 c 0.43553,-0.5965 1.16318,-1.0847 2.1829,-1.4646 1.0198,-0.3799 2.0064,-0.7231 2.9599,-1.0296 0.9534,-0.3065 3.0316,-1.0315 6.2346,-2.1751 3.203,-1.1437 5.7017,-1.9891 7.4961,-2.5364 1.7944,-0.5473 3.5269,-0.9654 5.1975,-1.2542 1.6705,-0.2888 4.2219,-0.6 7.6543,-0.9337 3.4323,-0.3336 6.6462,-0.6784 9.6418,-1.0343 2.9955,-0.3559 5.2409,-0.5964 6.7361,-0.7215 1.4952,-0.1252 3.4434,-0.251 5.8446,-0.3774 2.4011,-0.1265 4.0345,-0.239 4.9002,-0.3377 0.8656,-0.0986 1.9212,-0.2831 3.1666,-0.5534 1.2454,-0.2703 2.3669,-0.5285 3.3645,-0.7746 0.9976,-0.246 1.7529,-0.3846 2.266,-0.4156 0.7173,-0.0433 0.7345,0.7209 0.0515,2.2926"
           style="fill:none;stroke:#fcfcfc;stroke-width:10.3937;stroke-linecap:round;stroke-linejoin:round;stroke-miterlimit:10;stroke-dasharray:none;stroke-opacity:1"
           id="path1197" />
      </g>
      <g
         id="g1199"
         transform="matrix(1.1202213,0,0,-1.1202213,-15.728957,477.17448)">
        <path
           d="m 180.6047,497.8531 c -0.3701,-0.3828 -0.819,-0.6269 -1.3468,-0.7325 -0.5278,-0.1056 -0.9996,0.002 -1.4154,0.3229 -0.4158,0.3209 -0.7885,0.7657 -1.1181,1.3342 -0.3297,0.5685 -0.799,1.6541 -1.4081,3.2569 -0.6091,1.6028 -1.0339,3.1573 -1.2744,4.6635 -0.2405,1.5063 -0.3728,3.1076 -0.3968,4.8042 -0.0241,1.6965 0.0254,3.0417 0.1484,4.0355 0.1229,0.9938 0.5854,2.367 1.3873,4.1195 0.8019,1.7527 1.6564,2.9238 2.5635,3.5136 0.9071,0.5898 1.694,0.958 2.3608,1.1048 0.6668,0.1468 2.1028,0.003 4.3078,-0.4309 2.2051,-0.4339 4.0194,-1.1481 5.443,-2.1424 1.4235,-0.9944 2.6826,-2.1436 3.7773,-3.4475 1.0946,-1.304 1.9847,-2.5138 2.6703,-3.6292 0.6855,-1.1155 1.2507,-2.1777 1.6954,-3.1866 0.4447,-1.0088 0.8605,-2.3196 1.2472,-3.9322 0.3868,-1.6127 0.5995,-2.8751 0.6381,-3.7874 0.0387,-0.9123 0.0414,-1.5506 0.008,-1.9149 -0.0335,-0.3643 -0.267,-0.8963 -0.7008,-1.596 -0.4337,-0.6996 -0.9603,-1.2454 -1.5798,-1.6372 -0.6195,-0.3918 -1.2567,-0.6975 -1.9117,-0.9172 -0.655,-0.2196 -1.5812,-0.394 -2.7786,-0.5233 -1.1974,-0.1292 -2.2863,-0.1905 -3.2668,-0.184 -0.9805,0.007 -1.8265,0.1516 -2.538,0.4351 -1.03,0.4105 -1.9576,1.5475 -2.7827,3.4112"
           style="fill:none;stroke:#fcfcfc;stroke-width:10.3937;stroke-linecap:round;stroke-linejoin:round;stroke-miterlimit:10;stroke-dasharray:none;stroke-opacity:1"
           id="path1201" />
      </g>
      <g
         id="g1203"
         transform="matrix(1.1202213,0,0,-1.1202213,-15.728957,477.17448)">
        <path
           d="m 181.6571,562.8183 c -0.0466,-0.5246 -0.3462,-0.9622 -0.8987,-1.3128 -0.3735,-0.2369 -0.7686,-0.4136 -1.1855,-0.5299 -0.4169,-0.1164 -0.8699,-0.1877 -1.3589,-0.214 -0.489,-0.0263 -0.9918,0.1202 -1.5084,0.4394 -0.5166,0.3193 -1.0159,0.8802 -1.4979,1.6826 -0.4821,0.8025 -0.9454,1.8095 -1.3901,3.0211 -0.4447,1.2117 -0.8147,2.6778 -1.11,4.3985 -0.2952,1.7207 -0.4678,3.5376 -0.5176,5.4506 -0.0499,1.9131 0.0583,3.7114 0.3244,5.3949 0.2661,1.6836 0.7632,3.1484 1.4913,4.3946 0.7281,1.2461 1.5861,2.2265 2.5739,2.9412 0.9878,0.7147 2.1513,1.2077 3.4904,1.4791 1.3391,0.2714 2.8754,0.2939 4.6088,0.0675 1.7335,-0.2265 3.4325,-0.6558 5.0969,-1.2881 1.6645,-0.6322 3.173,-1.2579 4.5255,-1.877 1.3526,-0.6192 2.5455,-1.3108 3.5788,-2.075 1.0333,-0.7642 1.9964,-1.6868 2.8894,-2.7678 0.8929,-1.081 1.7246,-2.2851 2.4951,-3.6124 0.7705,-1.3272 1.3569,-2.6595 1.7592,-3.9968 0.4024,-1.3373 0.6322,-2.4946 0.6894,-3.472 0.0572,-0.9774 -0.1079,-1.8734 -0.4953,-2.688 -0.3874,-0.8146 -0.9241,-1.5967 -1.6101,-2.3463 -0.6861,-0.7495 -1.487,-1.4398 -2.4028,-2.0707 -0.9158,-0.6309 -1.9482,-1.1851 -3.0971,-1.6627 -1.1489,-0.4777 -2.3569,-0.855 -3.624,-1.1319 -1.2671,-0.277 -2.3758,-0.4293 -3.326,-0.457 -0.9502,-0.0277 -1.6982,0.0278 -2.2439,0.1664 -0.761,0.1934 -0.711,0.8314 0.15,1.9141"
           style="fill:none;stroke:#fcfcfc;stroke-width:10.3937;stroke-linecap:round;stroke-linejoin:round;stroke-miterlimit:10;stroke-dasharray:none;stroke-opacity:1"
           id="path1205" />
      </g>
      <g
         id="g1207"
         transform="matrix(1.1202213,0,0,-1.1202213,-15.728957,477.17448)">
        <path
           d="m 185.1822,484.399 c -1.868,-1.0935 -2.766,-1.7783 -2.6939,-2.0543 0.0508,-0.1948 0.3042,-0.3751 0.76,-0.5409 0.4558,-0.1657 1.1911,-0.3106 2.2059,-0.4344 1.0148,-0.1239 2.3371,-0.1554 3.967,-0.0947 1.6298,0.0608 3.199,0.3283 4.7073,0.8025 1.5084,0.4743 2.8497,0.9765 4.024,1.5067 1.1743,0.5302 2.6114,1.2266 4.3115,2.0892 1.7,0.8625 3.1925,1.7149 4.4774,2.557 1.285,0.8421 2.5204,1.7979 3.7062,2.8672 1.1858,1.0693 2.1972,2.1255 3.0343,3.1688 0.837,1.0433 1.6125,2.1559 2.3266,3.338 0.714,1.1821 1.4846,2.8197 2.3117,4.913 0.8271,2.0933 1.5413,4.098 2.1425,6.0141 0.6012,1.9162 1.0488,3.5967 1.3427,5.0417 0.294,1.4449 0.5184,3.0028 0.6731,4.6737 0.1548,1.6709 0.24,3.453 0.2554,5.3465 0.0155,1.8934 -0.2187,4.0464 -0.7026,6.4589 -0.484,2.4126 -0.8937,4.4152 -1.2293,6.0078 -0.3356,1.5927 -0.7082,3.2685 -1.1179,5.0273 -0.4098,1.7588 -0.869,3.5162 -1.3776,5.2721 -0.5086,1.7559 -1.0476,3.4922 -1.617,5.2088 -0.5694,1.7166 -1.1163,3.4606 -1.6409,5.2318 -0.5246,1.7712 -1.5551,5.874 -3.0915,12.3085 -1.5363,6.4344 -2.512,10.5168 -2.927,12.2472 -0.415,1.7304 -0.8585,3.3112 -1.3304,4.7425 -0.4719,1.4312 -1.0364,2.8206 -1.6936,4.1683 -0.6572,1.3477 -1.405,2.7618 -2.2433,4.2426 -0.8384,1.4807 -1.6774,2.9778 -2.517,4.4913 -0.8395,1.5136 -1.669,3.0385 -2.4883,4.5749 -0.8194,1.5363 -1.5936,2.7397 -2.3228,3.6102 -0.7293,0.8705 -1.3726,1.5029 -1.9302,1.8972 -0.5575,0.3943 -0.998,0.655 -1.3215,0.7822 -0.3234,0.1272 -0.46,0.168 -0.4095,0.1222 0.0504,-0.0457 0.1765,-0.1601 0.3782,-0.3431 0.2017,-0.183 1.4294,-0.6652 3.683,-1.4468 2.2536,-0.7816 3.9328,-1.3404 5.0375,-1.6766 1.1048,-0.3362 2.3783,-0.6821 3.8206,-1.0376 1.4423,-0.3554 2.9811,-0.6948 4.6164,-1.0181 1.6354,-0.3232 3.2888,-0.7253 4.9604,-1.2063 1.6716,-0.481 3.4534,-1.1308 5.3455,-1.9494 1.8921,-0.8186 3.8935,-1.737 6.0042,-2.7552 2.1107,-1.0182 4.1612,-1.983 6.1514,-2.8944 1.9903,-0.9113 4.0016,-1.7881 6.034,-2.6302 2.0324,-0.8421 4.2092,-1.7735 6.5305,-2.794 2.3213,-1.0205 4.713,-2.3084 7.175,-3.8637 2.462,-1.5553 5.0463,-3.5153 7.7528,-5.88 2.7065,-2.3647 5.3812,-4.6991 8.0241,-7.0033 2.6429,-2.3041 5.0301,-4.2444 7.1616,-5.8208 2.1316,-1.5764 4.2376,-3.2237 6.318,-4.9418 2.0804,-1.7182 3.9347,-3.5361 5.5626,-5.4538 1.628,-1.9177 2.9453,-3.7088 3.9519,-5.3733 1.0067,-1.6645 1.8213,-3.1359 2.4438,-4.4143 0.6226,-1.2784 1.0463,-2.3862 1.2712,-3.3236 0.225,-0.9373 0.3571,-1.8381 0.3966,-2.7023 0.0394,-0.8643 0.034,-1.8322 -0.0163,-2.9037 -0.0503,-1.0715 -0.2761,-2.8095 -0.6774,-5.2141 -0.4014,-2.4045 -0.8016,-4.8704 -1.2008,-7.3976 -0.3992,-2.5273 -0.707,-4.2928 -0.9235,-5.2964 -0.2165,-1.0036 -0.5067,-1.9701 -0.8707,-2.8996 -0.3639,-0.9293 -0.825,-1.8696 -1.3833,-2.8209 -0.5583,-0.9512 -1.6384,-2.466 -3.2404,-4.5442 -1.602,-2.0782 -2.8419,-3.6415 -3.7197,-4.6898 -0.8778,-1.0483 -1.774,-2.0004 -2.6887,-2.8562 -0.9147,-0.8559 -1.8752,-1.8752 -2.8817,-3.058 -1.0065,-1.1829 -2.0904,-2.4162 -3.2517,-3.7 -1.1614,-1.2838 -2.4559,-2.5751 -3.8835,-3.8739 -1.4277,-1.2988 -2.9754,-2.5423 -4.6431,-3.7304 -1.6678,-1.1881 -3.3493,-2.2731 -5.0444,-3.2551 -1.6952,-0.982 -3.3459,-1.8805 -4.9523,-2.6956 -1.6064,-0.8151 -3.3169,-1.6413 -5.1313,-2.4787 -1.8144,-0.8374 -3.7104,-1.5491 -5.6879,-2.1351 -1.9776,-0.5861 -3.9633,-1.1059 -5.9571,-1.5595 -1.9939,-0.4536 -3.953,-0.9104 -5.8773,-1.3703 -1.9243,-0.4598 -3.8994,-0.8006 -5.9252,-1.0221 -2.0258,-0.2215 -4.1465,-0.2995 -6.3621,-0.2339 -2.2156,0.0656 -4.4118,0.2895 -6.5888,0.6716 -2.1769,0.382 -4.2909,0.736 -6.342,1.062 -2.0511,0.3259 -4.0145,0.5588 -5.8903,0.6987 -1.8759,0.1398 -3.9464,0.2176 -6.2117,0.2331 -2.2653,0.0155 -3.2797,0.1023 -3.0433,0.2603 0.3381,0.226 1.4019,0.937 3.1912,2.133"
           style="fill:none;stroke:#fcfcfc;stroke-width:10.3937;stroke-linecap:round;stroke-linejoin:round;stroke-miterlimit:10;stroke-dasharray:none;stroke-opacity:1"
           id="path1209" />
      </g>
    </g>
    <g
       id="g25199"
       inkscape:label="xor gate"
       transform="matrix(1.0725766,0,0,1.0725766,1546.5765,868.44343)">
      <g
         id="g1211"
         transform="matrix(1.1202213,0,0,-1.1202213,-15.728957,477.17448)">
        <path
           d="m 109.6352,723.1003 c -1.0146,-0.6068 -1.5786,-1.1205 -1.692,-1.5411 -0.0788,-0.2926 0.3095,-0.5182 1.1651,-0.6766 0.8556,-0.1585 1.6896,-0.284 2.502,-0.3765 0.8124,-0.0926 2.4147,-0.1532 4.807,-0.1818 2.3922,-0.0286 4.3529,-0.0234 5.8819,0.0154 1.5291,0.0388 3.0394,0.2249 4.5309,0.5582 1.4916,0.3334 2.9697,0.7931 4.4342,1.3792 1.4646,0.5861 2.9084,1.2183 4.3314,1.8967 1.4231,0.6785 2.8324,1.3391 4.228,1.9821 1.3957,0.643 2.7181,1.3149 3.9674,2.0157 1.2493,0.7009 2.3477,1.3851 3.2953,2.0526 0.9475,0.6676 1.8703,1.5065 2.7682,2.5169 0.898,1.0105 1.712,2.0715 2.442,3.1832 0.73,1.1117 1.4187,2.1028 2.066,2.9734 0.6472,0.8706 1.3932,1.9859 2.2379,3.3461 0.8446,1.3601 1.639,2.8508 2.3831,4.4721 0.7441,1.6213 1.4521,3.2221 2.1241,4.8025 0.672,1.5804 1.2976,3.2704 1.877,5.0701 0.5794,1.7996 1.094,3.6438 1.5439,5.5323 0.4498,1.8886 0.8621,3.8319 1.2369,5.8299 0.3748,1.998 0.6935,3.7753 0.956,5.332 0.2626,1.5567 0.4477,2.8763 0.5554,3.9588 0.1078,1.0826 0.1676,3.576 0.1796,7.4804 0.0119,3.9044 -0.0539,6.457 -0.1974,7.6579 -0.1436,1.2009 -0.3564,2.2523 -0.6385,3.1541 -0.2821,0.9018 -0.5905,1.7272 -0.9253,2.4762 -0.3347,0.7491 -0.6624,1.725 -0.983,2.9279 -0.3206,1.2028 -0.6114,2.5958 -0.8724,4.179 -0.261,1.5832 -0.5481,3.0905 -0.8613,4.522 -0.3133,1.4314 -0.6815,2.6514 -1.1047,3.6601 -0.4232,1.0086 -1.0696,1.9788 -1.9392,2.9105 -0.8695,0.9318 -1.6821,2.4012 -2.4378,4.4084 -0.7556,2.0072 -1.3584,3.4557 -1.8083,4.3455 -0.4499,0.8898 -1.2493,2.097 -2.398,3.6215 -1.1488,1.5245 -2.2419,3.1554 -3.2793,4.8927 -1.0374,1.7372 -1.8093,2.961 -2.3158,3.6712 -0.5064,0.7102 -1.2301,1.5915 -2.1708,2.644 -0.9408,1.0525 -1.8053,2.3426 -2.5935,3.8702 -0.7882,1.5276 -1.355,2.5535 -1.7004,3.0775 -0.3455,0.524 -0.7221,0.9178 -1.13,1.1814 -0.4078,0.2635 -0.6301,0.4072 -0.6668,0.4309 -0.0367,0.0237 0.003,-0.0256 0.1181,-0.148 0.1639,-0.1738 1.5047,-1.5952 4.0223,-4.2642"
           style="fill:none;stroke:#fcfcfc;stroke-width:10.3937;stroke-linecap:round;stroke-linejoin:round;stroke-miterlimit:10;stroke-dasharray:none;stroke-opacity:1"
           id="path1213" />
      </g>
      <g
         id="g1215"
         transform="matrix(1.1202213,0,0,-1.1202213,-15.728957,477.17448)">
        <path
           d="m 158.4336,705.67 c -1.2738,-0.323 -1.9521,-0.4951 -2.0351,-0.5162 -0.0585,-0.0148 0.1314,-0.0222 0.5696,-0.0223 0.4382,0 3.0903,-3e-4 7.9561,-8e-4 4.8659,-4e-4 8.0067,0.0496 9.4224,0.1501 1.4158,0.1005 3.2374,0.361 5.4647,0.7813 2.2274,0.4204 3.8705,0.8373 4.9292,1.2507 1.0588,0.4135 1.9903,0.8056 2.7946,1.1763 0.8043,0.3708 1.5765,0.7591 2.3166,1.1647 0.74,0.4056 1.5176,0.9693 2.3328,1.691 0.8151,0.7218 1.5603,1.4678 2.2355,2.2379 0.6751,0.7701 1.355,1.5958 2.0394,2.4769 0.6845,0.881 1.4529,1.9519 2.3051,3.2126 0.8523,1.2607 1.5984,2.2723 2.2386,3.0349 0.64,0.7626 1.1978,1.3775 1.6731,1.8446 0.4753,0.4672 0.9164,0.9886 1.3233,1.5642 0.407,0.5758 1.328,2.8604 2.7631,6.8538 1.4351,3.9935 2.426,6.5896 2.9727,7.7883 0.5467,1.1988 0.9718,2.1853 1.2752,2.9596 0.3034,0.7744 0.6138,1.7168 0.9313,2.8272 0.3174,1.1105 0.6162,2.2852 0.8963,3.5241 0.2801,1.239 0.7245,2.961 1.3331,5.1661 0.6086,2.205 0.9712,3.6224 1.0878,4.252 0.1166,0.6297 0.2428,1.8276 0.3786,3.5935 0.1359,1.7661 0.2774,3.9601 0.4247,6.5822 0.1472,2.6221 0.2345,5.4806 0.2619,8.5757 0.0273,3.0951 3e-4,5.5224 -0.0812,7.282 -0.0815,1.7595 -0.1919,3.7504 -0.3312,5.9725 -0.1394,2.2222 -0.2435,3.6441 -0.3125,4.2659 -0.069,0.6217 -0.2152,1.321 -0.4385,2.0979 -0.2233,0.777 -0.458,2.0094 -0.7039,3.6974 -0.2459,1.6879 -0.4696,3.14 -0.6712,4.3563 -0.2015,1.2164 -0.5623,2.9211 -1.0823,5.1142 -0.52,2.193 -0.9053,3.6394 -1.1559,4.339 -0.2506,0.6996 -0.4762,1.8404 -0.6768,3.4221 -0.2006,1.5818 -0.3667,2.754 -0.4984,3.5166 -0.1316,0.7626 -0.3165,1.6148 -0.5547,2.5566 -0.2383,0.9417 -0.5652,1.9008 -0.9809,2.8772 -0.4158,0.9764 -0.9121,1.8512 -1.4892,2.6245 -0.577,0.7732 -1.1622,1.4973 -1.7553,2.1721 -0.5932,0.6748 -1.2182,1.4479 -1.8751,2.3194 -0.6569,0.8715 -1.3053,1.792 -1.9452,2.7614 -0.64,0.9694 -1.2287,1.8208 -1.7661,2.5543 -0.5373,0.7335 -0.9821,1.2996 -1.3343,1.6984 -0.3522,0.3989 -0.5387,0.6101 -0.5595,0.6337 l -0.01,0.0117 0.0469,-0.0486 c 0.0647,-0.0682 0.858,-0.906 2.38,-2.5134"
           style="fill:none;stroke:#fcfcfc;stroke-width:10.3937;stroke-linecap:round;stroke-linejoin:round;stroke-miterlimit:10;stroke-dasharray:none;stroke-opacity:1"
           id="path1217" />
      </g>
      <g
         id="g1219"
         transform="matrix(1.1202213,0,0,-1.1202213,-15.728957,477.17448)">
        <path
           d="m 166.9341,699.2397 c -0.1801,-1.1433 -0.4522,-1.7574 -0.8161,-1.8424 -0.2554,-0.0596 -0.4122,0.0439 -0.4704,0.3107 -0.0581,0.2668 0.3246,0.3733 1.1484,0.3197 0.8237,-0.0536 2.0522,-0.3836 3.6854,-0.99 1.6333,-0.6063 3.1544,-1.2344 4.5633,-1.884 1.4089,-0.6497 2.7697,-1.1941 4.0824,-1.6332 1.3127,-0.439 2.5605,-0.7615 3.7433,-0.9673 1.1828,-0.2059 2.5711,-0.3324 4.1648,-0.3796 1.5938,-0.0472 2.9452,0.063 4.0542,0.3306 1.1091,0.2676 2.4486,0.5181 4.0184,0.7514 1.5699,0.2334 3.0406,0.412 4.4121,0.5358 1.3715,0.1238 3.1157,0.1926 5.2327,0.2062 2.1169,0.0136 4.0944,-0.1842 5.9323,-0.5933 1.8379,-0.4091 3.2264,-0.6976 4.1655,-0.8652 0.9392,-0.1677 2.6419,-0.3337 5.1083,-0.4978 2.4663,-0.1642 5.1578,-0.4034 8.0744,-0.7178 2.9166,-0.3143 5.0552,-0.5102 6.4158,-0.5877 1.3606,-0.0775 3.2371,-0.1093 5.6295,-0.0955 2.3925,0.0138 4.8119,0.1191 7.2582,0.3158 2.4464,0.1967 4.8276,0.3647 7.1437,0.504 2.3161,0.1393 4.4855,0.3417 6.5082,0.6072 2.0226,0.2655 4.0533,0.4936 6.092,0.6845 2.0387,0.1908 3.9772,0.4315 5.8155,0.7221 1.8382,0.2906 3.5839,0.6258 5.2371,1.0056 1.6531,0.3798 2.8806,0.6831 3.6826,0.9099 0.802,0.2268 1.5516,0.4744 2.2488,0.7427 0.6971,0.2684 1.5501,0.6876 2.5588,1.2577 1.0087,0.57 2.2978,1.2018 3.8674,1.8954 1.5696,0.6936 3.196,1.373 4.8793,2.0382 1.6834,0.6651 3.2036,1.4215 4.5608,2.2692 1.3572,0.8476 3.1838,1.996 5.4797,3.4451 2.2959,1.4491 3.7138,2.3738 4.2539,2.7743 0.5401,0.4005 1.2962,1.0773 2.2682,2.0304 0.972,0.9531 1.6878,1.7465 2.1472,2.3804 0.4595,0.6338 0.8962,1.6235 1.3101,2.9692 0.4139,1.3457 0.7927,2.4589 1.1364,3.3397 0.3437,0.8808 0.783,1.9032 1.3181,3.0673 0.535,1.1641 1.0549,2.5635 1.5596,4.1984 0.5047,1.6348 0.8929,2.9614 1.1645,3.9798 0.2716,1.0184 0.5239,2.0504 0.7567,3.0958 0.2328,1.0455 0.4603,2.3402 0.6827,3.8841 0.2223,1.5439 0.361,3.081 0.416,4.6113 0.055,1.5303 0.146,3.2038 0.2731,5.0204 0.127,1.8166 0.1953,4.1355 0.2048,6.9565 0.01,2.8211 -0.005,4.7836 -0.044,5.8875 -0.0387,1.104 -0.1672,2.5528 -0.3853,4.3465 -0.218,1.7938 -0.3958,2.9968 -0.5332,3.6091 -0.1375,0.6122 -0.3256,1.2169 -0.5644,1.8142 -0.2388,0.5973 -0.9479,1.9488 -2.1273,4.0545 -1.1795,2.1058 -2.0323,3.609 -2.5584,4.5096 -0.5261,0.9005 -1.1142,1.8175 -1.7644,2.7507 -0.6501,0.9332 -1.3472,1.8764 -2.0913,2.8296 -0.744,0.9531 -1.5549,1.9101 -2.4325,2.8709 -0.8776,0.9609 -2.1652,2.2853 -3.8627,3.9734 -1.6975,1.6882 -2.9573,2.8899 -3.7795,3.6053 -0.8222,0.7152 -1.7885,1.4995 -2.899,2.3528 -1.1104,0.8533 -2.5381,1.9983 -4.283,3.435 -1.7448,1.4368 -3.7012,2.9401 -5.869,4.5101 -2.1679,1.57 -3.8612,2.8845 -5.0799,3.9434 -1.2187,1.059 -2.3507,2.0937 -3.3961,3.1041 -1.0453,1.0105 -2.2372,2.0297 -3.5757,3.0576 -1.3384,1.028 -2.6295,1.8809 -3.873,2.5589 -1.2436,0.6779 -2.9714,1.4687 -5.1833,2.3725 -2.212,0.9037 -3.9291,1.745 -5.1513,2.5238 -1.2223,0.7787 -2.5764,1.7565 -4.0623,2.9331 -1.486,1.1768 -2.6283,2.0227 -3.427,2.538 -0.7987,0.5153 -1.661,1.0053 -2.5867,1.47 -0.9258,0.4648 -2.1708,0.9284 -3.7351,1.3911 -1.5643,0.4626 -2.7578,0.8273 -3.5805,1.0939 -0.8227,0.2667 -1.9312,0.686 -3.3255,1.2581 -1.3942,0.572 -2.4519,0.9629 -3.1729,1.1727 -0.721,0.2098 -1.8834,0.4571 -3.4872,0.7421 -1.6039,0.285 -3.1776,0.6296 -4.7213,1.034 -1.5437,0.4043 -3.6138,0.8909 -6.2104,1.4598 -2.5967,0.5689 -4.2971,0.9788 -5.1012,1.2299 -0.8042,0.251 -1.5958,0.551 -2.3746,0.9 -0.7789,0.3489 -1.6612,0.8089 -2.6471,1.3799 -0.9858,0.5709 -2.0322,1.2359 -3.139,1.995 -1.1068,0.759 -1.784,1.2466 -2.0315,1.4627 -0.2476,0.216 -0.3847,0.3357 -0.4114,0.359 -0.0268,0.0234 -0.005,0.0143 0.0648,-0.0273 0.0993,-0.059 0.7816,-0.4646 2.0468,-1.2166"
           style="fill:none;stroke:#fcfcfc;stroke-width:10.3937;stroke-linecap:round;stroke-linejoin:round;stroke-miterlimit:10;stroke-dasharray:none;stroke-opacity:1"
           id="path1221" />
      </g>
      <g
         id="g1223"
         transform="matrix(1.1202213,0,0,-1.1202213,-15.728957,477.17448)">
        <path
           d="m 325.1032,722.2065 c -0.1493,0.533 -0.3427,0.8619 -0.5803,0.9869 -0.1645,0.0866 -0.2615,0.1376 -0.2907,0.153 -0.0293,0.0154 0.1541,0.007 0.55,-0.0253 0.396,-0.0323 1.7076,-0.1392 3.935,-0.3207 2.2274,-0.1816 4.4373,-0.3323 6.6298,-0.4522 2.1924,-0.1199 3.8053,-0.2446 4.8387,-0.3741 1.0334,-0.1295 2.1061,-0.2929 3.2184,-0.4901 1.1121,-0.1972 2.3505,-0.4592 3.715,-0.7861 1.3646,-0.3268 2.8969,-0.6713 4.5971,-1.0334 1.7002,-0.3621 3.7043,-0.645 6.0123,-0.8488 2.308,-0.2036 4.5649,-0.4162 6.7707,-0.6376 2.2059,-0.2214 4.5502,-0.4883 7.0329,-0.8008 2.4828,-0.3125 4.7951,-0.6184 6.9369,-0.9176 2.1418,-0.2993 4.1735,-0.6064 6.095,-0.9211 1.9214,-0.3146 3.8106,-0.644 5.6673,-0.9882 1.8568,-0.3441 3.6715,-0.6562 5.4442,-0.9363 1.7727,-0.2801 3.3646,-0.5068 4.7758,-0.6799 1.4112,-0.1733 3.235,-0.3495 5.4714,-0.5287 2.2364,-0.1793 4.4035,-0.331 6.5013,-0.455 2.0978,-0.124 4.2178,-0.2927 6.3599,-0.5061 2.1421,-0.2134 4.236,-0.5569 6.2817,-1.0305 2.0457,-0.4736 4.0458,-0.9296 6.0004,-1.3678 1.9545,-0.4382 4.0054,-0.8133 6.1526,-1.1251 2.1472,-0.3119 4.2846,-0.5448 6.4123,-0.6989 2.1277,-0.154 4.07,-0.3308 5.8271,-0.5305 1.7571,-0.1997 3.3909,-0.4546 4.9014,-0.765 1.5105,-0.3103 2.9175,-0.6261 4.221,-0.9475 1.3035,-0.3214 2.3964,-0.5724 3.2786,-0.753 0.8823,-0.1806 1.3982,-0.2862 1.5479,-0.3168 0.1497,-0.0307 0.1041,0.026 -0.137,0.1699 -0.3435,0.2052 -1.8847,1.1255 -4.6235,2.7611"
           style="fill:none;stroke:#fcfcfc;stroke-width:10.3937;stroke-linecap:round;stroke-linejoin:round;stroke-miterlimit:10;stroke-dasharray:none;stroke-opacity:1"
           id="path1225" />
      </g>
      <g
         id="g1227"
         transform="matrix(1.1202213,0,0,-1.1202213,-15.728957,477.17448)">
        <path
           d="m 81.38114,752.1451 c -0.86174,0 -1.34964,0 -1.46371,0 -0.08,0 -0.0453,-0.0294 0.10408,-0.0881 0.1494,-0.0587 0.64227,-0.2523 1.47863,-0.581 0.83635,-0.3286 2.10621,-0.7722 3.80958,-1.3307 1.70336,-0.5585 3.7123,-1.1792 6.02681,-1.8621 2.31451,-0.6829 4.25533,-1.2769 5.82247,-1.7821 1.56713,-0.5052 3.1799,-1.0706 4.8382,-1.6963 1.6584,-0.6256 3.3426,-1.2489 5.0528,-1.8699 1.7102,-0.6209 3.3492,-1.1048 4.9171,-1.4516 1.5679,-0.3469 4.8821,-0.5396 9.9425,-0.5781 5.0604,-0.0386 8.5379,-0.102 10.4323,-0.1902 1.8944,-0.0883 3.851,-0.1348 5.8697,-0.1396 2.0187,-0.005 3.3366,-0.038 3.9537,-0.0994 0.617,-0.0614 1.6383,-0.3062 3.0638,-0.7344 1.4255,-0.4282 2.2648,-0.659 2.5178,-0.6924 0.253,-0.0334 0.3944,-0.0521 0.4242,-0.056 0.0298,-0.004 0.0202,0.009 -0.0289,0.0377 -0.0698,0.0414 -0.5108,0.3028 -1.3229,0.7843"
           style="fill:none;stroke:#fcfcfc;stroke-width:10.3937;stroke-linecap:round;stroke-linejoin:round;stroke-miterlimit:10;stroke-dasharray:none;stroke-opacity:1"
           id="path1229" />
      </g>
      <g
         id="g1231"
         transform="matrix(1.1202213,0,0,-1.1202213,-15.728957,477.17448)">
        <path
           d="m 85.82991,818.3135 c -0.1443,-0.5675 -0.49109,-0.983 -1.04039,-1.2466 -0.3732,-0.1791 0.20444,-0.5584 1.73293,-1.138 1.52847,-0.5796 2.90625,-1.166 4.13331,-1.7592 1.22707,-0.5931 3.61753,-1.8557 7.17137,-3.7876 3.55387,-1.9319 6.22967,-3.3312 8.02747,-4.198 1.7978,-0.8668 3.4036,-1.5725 4.8173,-2.1171 1.4136,-0.5445 2.7674,-0.9975 4.0612,-1.3591 1.2938,-0.3615 2.6126,-0.6832 3.9565,-0.9651 1.3439,-0.2819 3.4205,-0.644 6.2297,-1.0866 2.8093,-0.4425 5.9313,-0.9627 9.3661,-1.5604 3.4348,-0.5978 6.2262,-1.1005 8.3742,-1.5082 2.1481,-0.4076 4.5884,-0.8325 7.3208,-1.2744 2.7325,-0.442 4.8085,-0.9591 6.2279,-1.5514 2.0986,-0.8755 3.626,-0.8785 4.5822,-0.009"
           style="fill:none;stroke:#fcfcfc;stroke-width:10.3937;stroke-linecap:round;stroke-linejoin:round;stroke-miterlimit:10;stroke-dasharray:none;stroke-opacity:1"
           id="path1233" />
      </g>
    </g>
    <g
       id="g25185"
       inkscape:label="mipspipeline"
       transform="matrix(1.0725766,0,0,1.0725766,260.35586,-360.96061)">
      <g
         id="g1235"
         transform="matrix(1.1202213,0,0,-1.1202213,-193.87383,768.63863)">
        <path
           d="m 591.265,637.6108 c -1.5451,-1.5019 -2.7828,-2.3619 -3.713,-2.5799 -0.6428,-0.1506 -1.2314,-0.2276 -1.7656,-0.231 -0.5342,-0.003 -1.1055,0.0869 -1.7138,0.2708 -0.6083,0.1839 -1.2203,0.4609 -1.836,0.8311 -0.6158,0.3702 -1.2221,0.7999 -1.8191,1.2892 -0.5971,0.4893 -1.1408,1.0348 -1.6312,1.6365 -0.4904,0.6017 -0.9445,1.2928 -1.3621,2.0733 -0.4177,0.7805 -0.7929,1.6118 -1.1257,2.4939 -0.3328,0.8821 -0.607,1.7889 -0.8227,2.7202 -0.2156,0.9314 -0.3749,1.8652 -0.478,2.8015 -0.103,0.9363 -0.1505,2.2982 -0.1425,4.0858 0.008,1.7876 0.0946,3.1159 0.2594,3.9849 0.1648,0.8691 0.3582,1.6765 0.5804,2.4223 0.2221,0.7457 0.4878,1.4127 0.7972,2.001 0.3093,0.5883 0.6657,1.1687 1.0692,1.7412 0.4034,0.5726 0.862,1.1359 1.3757,1.6901 0.5137,0.5542 1.0737,1.0629 1.68,1.5259 0.6062,0.4631 1.3199,0.9132 2.1411,1.3503 0.8211,0.4372 1.7248,0.8005 2.711,1.0898 0.9862,0.2894 1.971,0.4905 2.9543,0.6032 0.9833,0.1127 2.4814,0.1875 4.4944,0.2245 2.0129,0.037 3.4704,-0.0365 4.3723,-0.2205 0.9019,-0.1839 1.7977,-0.4414 2.6872,-0.7724 0.8895,-0.3311 1.7804,-0.7478 2.6725,-1.2499 0.8922,-0.5021 2.1859,-1.3213 3.8811,-2.4575 1.6953,-1.1363 2.9053,-1.9692 3.63,-2.4988 0.7248,-0.5296 1.3602,-1.0275 1.906,-1.4937 0.5459,-0.4662 1.0518,-0.9906 1.5177,-1.5732 0.4659,-0.5827 0.8967,-1.2298 1.2925,-1.9414 0.3958,-0.7115 0.7357,-1.4323 1.0198,-2.1624 0.284,-0.73 0.5334,-1.4805 0.748,-2.2514 0.2147,-0.771 0.3851,-1.505 0.5113,-2.2018 0.1263,-0.6969 0.1957,-1.3566 0.2083,-1.9791 0.0126,-0.6225 -0.0231,-1.2636 -0.1073,-1.9233 -0.0841,-0.6597 -0.2836,-1.3101 -0.5985,-1.9512 -0.315,-0.6411 -0.7152,-1.2729 -1.2006,-1.8953 -0.4855,-0.6225 -1.03,-1.2413 -1.6333,-1.8563 -0.6035,-0.6151 -1.2439,-1.16 -1.9212,-1.6347 -0.6773,-0.4747 -1.399,-0.8474 -2.1652,-1.1183 -0.7661,-0.2708 -1.6105,-0.4504 -2.533,-0.5389 -0.9225,-0.0885 -2.2478,-0.1181 -3.9759,-0.0888 -1.728,0.0294 -3.1454,0.1118 -4.2523,0.2472 -1.1068,0.1354 -2.0957,0.2253 -2.9667,0.2697 -0.8709,0.0443 -1.5862,0.1104 -2.1458,0.1981 -0.5596,0.0877 -1.8799,0.4288 -3.961,1.0233 -2.0811,0.5944 -3.0121,1.173 -2.7928,1.7357"
           style="fill:none;stroke:#fcfcfc;stroke-width:10.3937;stroke-linecap:round;stroke-linejoin:round;stroke-miterlimit:10;stroke-dasharray:none;stroke-opacity:1"
           id="path1237" />
      </g>
      <g
         id="g1239"
         transform="matrix(1.1202213,0,0,-1.1202213,-193.87383,768.63863)">
        <path
           d="m 615.603,662.8984 c -0.4124,0.3085 0.3475,0.7859 2.2795,1.4324 1.9321,0.6465 3.6735,1.3604 5.2244,2.1419 1.5509,0.7814 3.3196,1.7779 5.3062,2.9895 1.9865,1.2116 3.9851,2.3499 5.9958,3.4147 2.0108,1.0648 4.5452,2.0681 7.6032,3.0099 3.058,0.9419 5.203,1.6788 6.435,2.2107 1.2321,0.5319 2.816,1.3369 4.7515,2.415 1.9356,1.0781 3.1925,1.7592 3.7707,2.0434 0.5782,0.2842 0.8851,0.4351 0.9207,0.4526 0.0356,0.0175 0.0245,0.0186 -0.0332,0.003 -0.082,-0.0216 -1.049,-0.277 -2.9012,-0.7661"
           style="fill:none;stroke:#fcfcfc;stroke-width:10.3937;stroke-linecap:round;stroke-linejoin:round;stroke-miterlimit:10;stroke-dasharray:none;stroke-opacity:1"
           id="path1241" />
      </g>
      <g
         id="g1243"
         transform="matrix(1.1202213,0,0,-1.1202213,-193.87383,768.63863)">
        <path
           d="m 676.423,677.5584 c 0.0624,-0.5632 -0.061,-1.0628 -0.3701,-1.4988 -0.2096,-0.2956 -0.6283,-0.559 -1.2563,-0.7903 -0.6279,-0.2313 -1.2941,-0.3306 -1.9984,-0.2977 -0.7044,0.0329 -1.2901,0.2048 -1.7572,0.5158 -0.4671,0.3109 -0.9723,0.7192 -1.5157,1.2249 -0.5433,0.5057 -1.5664,1.3358 -3.0692,2.4903 -1.5029,1.1546 -2.6335,2.0612 -3.3918,2.7199 -0.7583,0.6588 -1.4936,1.4008 -2.2058,2.226 -0.7121,0.8252 -1.3929,1.7314 -2.0423,2.7184 -0.6494,0.9871 -1.2316,1.9823 -1.7466,2.9856 -0.515,1.0033 -0.9535,1.9572 -1.3154,2.8616 -0.3619,0.9043 -0.6522,1.7507 -0.8708,2.5391 -0.2185,0.7884 -0.3387,1.49 -0.3606,2.105 -0.0219,0.6148 0.0476,1.2713 0.2084,1.9693 0.1608,0.6981 0.4646,1.4002 0.9114,2.1066 0.4468,0.7063 0.9719,1.4243 1.5753,2.1538 0.6034,0.7295 1.3253,1.449 2.1655,2.1584 0.8403,0.7096 1.8786,1.3678 3.1151,1.9748 1.2364,0.607 2.6576,1.0525 4.2635,1.3366 1.6059,0.284 3.3719,0.4626 5.2979,0.5357 1.9261,0.0731 3.8391,0.0714 5.7391,-0.005 1.8999,-0.0764 3.5521,-0.2721 4.9566,-0.5868 1.4045,-0.3148 2.5882,-0.6638 3.5513,-1.047 0.963,-0.3833 1.8012,-0.809 2.5145,-1.2773 0.7133,-0.4683 1.8726,-1.3708 3.4779,-2.7077 1.6053,-1.3369 2.926,-2.6109 3.9622,-3.822 1.0361,-1.2112 1.9959,-2.606 2.8795,-4.1845 0.8836,-1.5784 1.5965,-3.0636 2.1388,-4.4554 0.5424,-1.3919 0.8814,-2.5092 1.0171,-3.3519 0.1357,-0.8427 0.2007,-1.5017 0.1949,-1.9768 -0.006,-0.4751 -0.174,-0.9822 -0.5044,-1.5211 -0.3304,-0.5388 -0.8109,-1.1423 -1.4415,-1.8104 -0.6306,-0.6681 -1.3887,-1.4068 -2.2744,-2.2163 -0.8856,-0.8094 -1.8151,-1.5953 -2.7883,-2.3574 -0.9733,-0.7622 -1.9412,-1.3963 -2.9039,-1.9025 -0.9626,-0.5062 -1.9034,-0.8153 -2.8222,-0.9274 -0.9189,-0.112 -1.8976,-0.0703 -2.9363,0.1251 -1.0387,0.1954 -2.1434,0.4787 -3.3143,0.85 -1.171,0.3714 -2.2263,0.6454 -3.166,0.8222 -1.3518,0.2542 -2.0715,0.9997 -2.1591,2.2364"
           style="fill:none;stroke:#fcfcfc;stroke-width:10.3937;stroke-linecap:round;stroke-linejoin:round;stroke-miterlimit:10;stroke-dasharray:none;stroke-opacity:1"
           id="path1245" />
      </g>
      <g
         id="g1247"
         transform="matrix(1.1202213,0,0,-1.1202213,-193.87383,768.63863)">
        <path
           d="m 700.8285,704.317 c -1.469,0.7397 -2.2909,1.174 -2.4658,1.303 -0.1226,0.0905 -0.2087,0.1541 -0.2583,0.1907 -0.0497,0.0367 0.0803,0.0586 0.3897,0.0659 0.3096,0.007 0.8469,0.0199 1.612,0.038 0.7652,0.0179 1.7005,0.1006 2.8059,0.2481 1.1054,0.1474 2.3613,0.4546 3.7679,0.9217 1.4065,0.467 3.0144,1.1454 4.8235,2.0352 1.8092,0.8899 3.3183,1.678 4.5275,2.3645 1.2091,0.6864 3.1294,1.8848 5.7608,3.595 2.6315,1.7103 4.7054,3.1256 6.2218,4.2459 1.5165,1.1202 2.8143,1.9932 3.8933,2.6189 1.079,0.6257 1.9383,1.062 2.5778,1.3088 0.6394,0.2469 1.4025,0.444 2.289,0.5915 0.8866,0.1476 1.6939,0.2285 2.4221,0.2428 0.7282,0.0143 1.1903,0.0234 1.3864,0.0273"
           style="fill:none;stroke:#fcfcfc;stroke-width:10.3937;stroke-linecap:round;stroke-linejoin:round;stroke-miterlimit:10;stroke-dasharray:none;stroke-opacity:1"
           id="path1249" />
      </g>
      <g
         id="g1251"
         transform="matrix(1.1202213,0,0,-1.1202213,-193.87383,768.63863)">
        <path
           d="m 754.101,701.7612 c 0.191,-0.2958 0.3086,-0.4781 0.353,-0.5468 0.0309,-0.048 0.0469,-0.0192 0.048,0.0862 9e-4,0.1054 0.003,0.3323 0.006,0.6805 0.003,0.3482 -0.117,0.947 -0.3611,1.7964 -0.244,0.8494 -0.6867,1.9839 -1.328,3.4033 -0.6414,1.4195 -1.4171,3.0349 -2.3271,4.8464 -0.91,1.8115 -2.6541,4.9352 -5.2323,9.3712 -2.5783,4.4359 -4.7995,8.294 -6.6637,11.5741 -1.8643,3.2801 -3.7316,6.8933 -5.6021,10.8396 -1.8704,3.9463 -3.5898,7.5043 -5.1582,10.674 -1.5684,3.1697 -2.8928,5.9824 -3.9731,8.438 -1.0804,2.4555 -1.8167,4.2395 -2.2089,5.3519 -0.3921,1.1124 -0.6648,1.6735 -0.8178,1.6834 -0.1531,0.01 -0.2336,0.015 -0.2417,0.0156 l -0.001,2e-4 0.0985,-10e-4 c 0.0729,-10e-4 0.8019,-0.0123 2.187,-0.0335 1.385,-0.0212 3.1491,-0.1362 5.2923,-0.345 2.1432,-0.2088 4.6062,-0.374 7.3892,-0.4954 2.783,-0.1214 5.6931,-0.1993 8.7303,-0.2337 3.0371,-0.0346 8.5814,-0.0537 16.6328,-0.0575 8.0515,-0.004 12.9459,0.1282 14.6834,0.3962 1.7375,0.268 3.5727,0.6778 5.5056,1.2294 1.933,0.5515 3.5247,0.9161 4.7753,1.0936 1.2505,0.1775 2.5457,0.3023 3.8858,0.3744 1.34,0.0721 2.0463,0.1101 2.1189,0.114 0.0725,0.004 0.099,0.002 0.0794,-0.007 -0.0279,-0.0118 -0.4002,-0.1693 -1.117,-0.4726"
           style="fill:none;stroke:#fcfcfc;stroke-width:10.3937;stroke-linecap:round;stroke-linejoin:round;stroke-miterlimit:10;stroke-dasharray:none;stroke-opacity:1"
           id="path1253" />
      </g>
      <g
         id="g1255"
         transform="matrix(1.1202213,0,0,-1.1202213,-193.87383,768.63863)">
        <path
           d="m 803.4983,750.0861 c 0.3585,-0.1595 0.4884,-0.0157 0.3898,0.4314 -0.0727,0.3294 -0.4638,1.0438 -1.1734,2.1433 -0.7096,1.0994 -1.6645,2.6617 -2.8646,4.6869 -1.2001,2.0251 -2.8514,4.9322 -4.9537,8.7213 -2.1024,3.7891 -3.4257,5.5803 -3.9698,5.3736"
           style="fill:none;stroke:#fcfcfc;stroke-width:10.3937;stroke-linecap:round;stroke-linejoin:round;stroke-miterlimit:10;stroke-dasharray:none;stroke-opacity:1"
           id="path1257" />
      </g>
      <g
         id="g1259"
         transform="matrix(1.1202213,0,0,-1.1202213,-193.87383,768.63863)">
        <path
           d="m 761.0603,705.6539 c -0.5477,-0.9332 -0.6704,-1.3087 -0.368,-1.1267 0.2174,0.1309 0.7612,0.4582 1.6312,0.982 0.8701,0.5236 2.078,1.3199 3.6237,2.3888 1.5457,1.0689 3.4649,2.5418 5.7575,4.4187 2.2926,1.8769 4.7156,4.0483 7.2691,6.5142 2.5535,2.4658 4.7398,4.5535 6.5589,6.2631 1.8191,1.7095 3.776,3.3784 5.8709,5.0067 2.0949,1.6283 3.701,3.1939 4.8184,4.6968 1.1175,1.503 2.0697,3.1113 2.8566,4.8251 0.7869,1.7137 1.5771,3.5236 2.3707,5.4296 0.7935,1.9061 1.1333,2.7856 1.0195,2.6384 -0.163,-0.2107 -0.6755,-0.8732 -1.5377,-1.9877"
           style="fill:none;stroke:#fcfcfc;stroke-width:10.3937;stroke-linecap:round;stroke-linejoin:round;stroke-miterlimit:10;stroke-dasharray:none;stroke-opacity:1"
           id="path1261" />
      </g>
      <g
         id="g1263"
         transform="matrix(1.1202213,0,0,-1.1202213,-193.87383,768.63863)">
        <path
           d="m 804.9835,764.4851 c 0.1379,-2.46 2.0166,-2.6175 5.6362,-0.4723 3.6195,2.1452 6.6079,3.9786 8.965,5.5001 2.3571,1.5215 4.7652,2.9642 7.2243,4.328 2.4591,1.3639 4.8398,2.382 7.1423,3.0544 2.3024,0.6724 4.2885,1.2488 5.9583,1.7293 1.6698,0.4804 2.9374,1.0713 3.8028,1.7726 0.8654,0.7014 1.4476,1.3833 1.7466,2.0457 0.299,0.6625 0.5547,1.2292 0.7673,1.7002"
           style="fill:none;stroke:#fcfcfc;stroke-width:10.3937;stroke-linecap:round;stroke-linejoin:round;stroke-miterlimit:10;stroke-dasharray:none;stroke-opacity:1"
           id="path1265" />
      </g>
      <g
         id="g1267"
         transform="matrix(1.1202213,0,0,-1.1202213,-193.87383,768.63863)">
        <path
           d="m 870.7133,782.2349 c 0.3243,-1.3532 0.4899,-2.3827 0.4968,-3.0884 0.005,-0.4845 -0.0547,-0.9352 -0.1784,-1.3522 -0.1237,-0.4169 -0.3663,-0.7915 -0.7279,-1.1235 -0.3615,-0.3321 -0.8689,-0.5538 -1.522,-0.6652 -0.6531,-0.1114 -1.5982,-0.1335 -2.8354,-0.0665 -1.2371,0.0671 -2.8527,0.506 -4.8467,1.3168 -1.9939,0.8107 -4.0898,1.8541 -6.2875,3.1301 -2.1977,1.2759 -4.1573,2.7595 -5.8787,4.4505 -1.7214,1.6911 -3.0174,3.4643 -3.888,5.3197 -0.8706,1.8554 -1.3707,3.5738 -1.5005,5.1553 -0.1297,1.5815 -0.1486,3.1297 -0.0568,4.6447 0.0917,1.515 0.4196,3.0797 0.9837,4.6941 0.5641,1.6145 1.3477,3.1501 2.3509,4.607 1.0031,1.4569 2.2746,2.649 3.8145,3.5764 1.5399,0.9274 3.3123,1.5603 5.3171,1.8987 2.0048,0.3385 4.064,0.5246 6.1774,0.5585 2.1135,0.0338 4.1606,-0.1654 6.1413,-0.5975 1.9807,-0.4322 3.8307,-0.9769 5.5498,-1.6344 1.7191,-0.6574 3.2621,-1.3596 4.6291,-2.1065 1.3671,-0.747 2.6117,-1.7022 3.734,-2.8658 1.1223,-1.1635 2.0694,-2.359 2.8412,-3.5865 0.7719,-1.2275 1.34,-2.3326 1.7043,-3.3153 0.3643,-0.9826 0.6171,-1.8832 0.7582,-2.7017 0.1413,-0.8186 0.219,-1.6514 0.2331,-2.4982 0.0141,-0.8468 -0.0305,-1.815 -0.1339,-2.9048 -0.1034,-1.0898 -0.3756,-2.3257 -0.8166,-3.7078 -0.441,-1.382 -1.0134,-2.8122 -1.7171,-4.2905 -0.7038,-1.4783 -1.4905,-2.7632 -2.3603,-3.8547 -0.8696,-1.0914 -1.7806,-1.9486 -2.7329,-2.5714 -0.9522,-0.6229 -1.8562,-1.0073 -2.7119,-1.1534 -0.8558,-0.146 -1.5748,-0.1119 -2.1571,0.1024 -0.8328,0.3066 -1.5158,1.6915 -2.049,4.1546"
           style="fill:none;stroke:#fcfcfc;stroke-width:10.3937;stroke-linecap:round;stroke-linejoin:round;stroke-miterlimit:10;stroke-dasharray:none;stroke-opacity:1"
           id="path1269" />
      </g>
      <g
         id="g1271"
         transform="matrix(1.1202213,0,0,-1.1202213,-193.87383,768.63863)">
        <path
           d="m 891.838,803.3105 c 0.4875,0.6257 0.7511,1.102 0.7907,1.4289 0.0274,0.2263 0.2904,0.5739 0.7891,1.0429 0.4987,0.4691 1.4094,1.1067 2.732,1.913 1.3225,0.8063 4.5453,2.5465 9.6683,5.2205 5.1231,2.6739 8.8502,4.5761 11.1815,5.7065 2.3314,1.1304 4.4576,2.1318 6.3786,3.0042 1.921,0.8724 3.5848,1.6622 4.9914,2.3692 1.4066,0.7071 2.4308,1.2947 3.0725,1.7631 0.6417,0.4683 1.0852,0.792 1.3304,0.9709 0.2452,0.179 0.2978,0.1964 0.1579,0.0522 -0.2016,-0.2077 -0.6378,-0.6572 -1.3088,-1.3484"
           style="fill:none;stroke:#fcfcfc;stroke-width:10.3937;stroke-linecap:round;stroke-linejoin:round;stroke-miterlimit:10;stroke-dasharray:none;stroke-opacity:1"
           id="path1273" />
      </g>
      <g
         id="g1275"
         transform="matrix(1.1202213,0,0,-1.1202213,-193.87383,768.63863)">
        <path
           d="m 955.562,822.4814 c -0.4967,-0.6253 -0.9318,-1.3617 -1.3052,-2.2091 -0.3734,-0.8474 -0.7227,-1.4582 -1.0478,-1.8324 -0.3251,-0.3741 -0.8124,-0.7251 -1.4619,-1.0529 -0.6494,-0.3278 -1.6042,-0.5276 -2.8642,-0.5995 -1.2601,-0.0719 -2.8572,0.1762 -4.7914,0.7441 -1.9342,0.568 -4.0166,1.5895 -6.2471,3.0645 -2.2305,1.4751 -4.2702,3.2328 -6.1191,5.2732 -1.8488,2.0404 -3.2557,4.1789 -4.2205,6.4154 -0.9648,2.2365 -1.5983,4.2595 -1.9004,6.0689 -0.3022,1.8094 -0.3655,3.3798 -0.1901,4.711 0.1755,1.3312 0.6212,2.6496 1.3372,3.9553 0.716,1.3057 1.6453,2.652 2.7878,4.0389 1.1425,1.3869 2.4596,2.6746 3.9514,3.863 1.4917,1.1884 3.0222,2.1799 4.5916,2.9744 1.5693,0.7945 3.2124,1.3459 4.9292,1.6543 1.7167,0.3084 3.5146,0.2714 5.3935,-0.111 1.879,-0.3824 3.6943,-1.1594 5.446,-2.3311 1.7516,-1.1718 3.3747,-2.4723 4.8691,-3.9017 1.4944,-1.4293 2.8402,-2.8241 4.0373,-4.1843 1.1971,-1.3602 2.2454,-2.622 3.1451,-3.7854 0.8996,-1.1634 1.6428,-2.2444 2.2294,-3.243 0.5866,-0.9986 1.0218,-1.9582 1.3055,-2.8789 0.2838,-0.9206 0.4612,-1.8486 0.5322,-2.7838 0.071,-0.9352 0.007,-2.0052 -0.1913,-3.2098 -0.1985,-1.2047 -0.69,-2.5373 -1.4742,-3.9978 -0.7842,-1.4606 -1.7297,-2.8809 -2.8364,-4.261 -1.1067,-1.3801 -2.1771,-2.53 -3.2112,-3.4497 -1.0342,-0.9198 -1.9736,-1.5484 -2.8181,-1.8861 -0.8446,-0.3376 -1.5555,-0.501 -2.1327,-0.4902 -0.8269,0.0157 -2.0173,0.9959 -3.571,2.9408"
           style="fill:none;stroke:#fcfcfc;stroke-width:10.3937;stroke-linecap:round;stroke-linejoin:round;stroke-miterlimit:10;stroke-dasharray:none;stroke-opacity:1"
           id="path1277" />
      </g>
    </g>
    <g
       id="g25149"
       inkscape:label="function"
       transform="matrix(0.8593377,0.64184053,-0.64184053,0.8593377,661.15304,-118.89423)">
      <g
         id="g1279"
         transform="matrix(1.1202213,0,0,-1.1202213,-15.728957,477.17448)">
        <path
           d="m 153.9403,173.2622 c -0.6427,0.2236 -1.5347,-0.2951 -2.6759,-1.5562 -0.7619,-0.8419 -1.2803,-2.1627 -1.5551,-3.9624 -0.2749,-1.7997 -0.4746,-4.5384 -0.5992,-8.2159 -0.1245,-3.6776 0.1744,-8.2104 0.8966,-13.5985 0.7223,-5.388 2.1615,-10.7153 4.3177,-15.9818 2.1562,-5.2666 4.763,-9.9751 7.8204,-14.1257 3.0574,-4.1506 6.5156,-7.4607 10.3747,-9.9305 3.8592,-2.4697 7.3656,-4.0608 10.5193,-4.7732 3.1538,-0.7124 5.965,-0.8482 8.4336,-0.4075 2.4687,0.4408 4.6721,1.3814 6.6101,2.8218 1.9381,1.4405 3.3598,3.1005 4.2652,4.98 1.3119,2.7232 1.3976,7.0581 0.2574,13.0046"
           style="fill:none;stroke:#fcfcfc;stroke-width:10.3937;stroke-linecap:round;stroke-linejoin:round;stroke-miterlimit:10;stroke-dasharray:none;stroke-opacity:1"
           id="path1281" />
      </g>
      <g
         id="g1283"
         transform="matrix(1.1202213,0,0,-1.1202213,-15.728957,477.17448)">
        <path
           d="m 145.5549,140.568 c -1.4794,-0.4635 -2.2936,-0.8681 -2.4426,-1.2138 -0.1043,-0.2421 0.4275,-0.4849 1.5953,-0.7286 1.1679,-0.2436 3.0093,-0.4175 5.5243,-0.5217 2.515,-0.1041 5.5524,-0.1614 9.1124,-0.1718 3.56,-0.0104 7.3662,-0.003 11.4189,0.0227 6.0249,0.038 11.8875,1.5109 17.588,4.4188"
           style="fill:none;stroke:#fcfcfc;stroke-width:10.3937;stroke-linecap:round;stroke-linejoin:round;stroke-miterlimit:10;stroke-dasharray:none;stroke-opacity:1"
           id="path1285" />
      </g>
      <g
         id="g1287"
         transform="matrix(1.1202213,0,0,-1.1202213,-15.728957,477.17448)">
        <path
           d="m 243.8181,118.4025 c 0.2107,-1.3487 0.2791,-2.4685 0.2052,-3.3597 -0.0503,-0.6065 -0.3713,-1.0266 -0.9632,-1.2601 -0.5919,-0.2336 -1.7029,0.2132 -3.3332,1.3401 -1.6302,1.127 -3.86,3.9512 -6.6892,8.4724 -2.8292,4.5213 -5.6975,10.3493 -8.6051,17.4841 -2.9075,7.1347 -4.5066,13.4959 -4.7974,19.0834 -0.2907,5.5874 0.6029,9.6912 2.6809,12.3113 2.078,2.6201 4.152,4.6961 6.222,6.2281 2.0699,1.5321 4.0055,2.5842 5.8067,3.1563 2.5987,0.8254 6.1067,-0.1837 10.5241,-3.0273"
           style="fill:none;stroke:#fcfcfc;stroke-width:10.3937;stroke-linecap:round;stroke-linejoin:round;stroke-miterlimit:10;stroke-dasharray:none;stroke-opacity:1"
           id="path1289" />
      </g>
      <g
         id="g1291"
         transform="matrix(1.1202213,0,0,-1.1202213,-15.728957,477.17448)">
        <path
           d="m 272.0196,141.4148 c -0.6851,-1.0098 -0.8246,-2.2506 -0.4187,-3.7226 0.2736,-0.9919 1.1217,-1.8898 2.5446,-2.6938 1.4228,-0.804 3.051,-1.3094 4.8845,-1.5161 1.8334,-0.2068 3.5396,0.145 5.1184,1.0552 1.5789,0.9103 2.7037,2.4382 3.3744,4.5839 0.6708,2.1457 0.9427,4.7122 0.8157,7.6996 -0.127,2.9874 -0.6381,5.8772 -1.5334,8.6694 -0.8952,2.7923 -2.0599,4.9764 -3.4941,6.5522 -1.4342,1.5759 -3.0316,2.5656 -4.7923,2.9692 -1.7607,0.4037 -3.4638,0.6389 -5.1093,0.7059 -2.2634,0.0921 -2.6233,-1.0555 -1.0795,-3.4429"
           style="fill:none;stroke:#fcfcfc;stroke-width:10.3937;stroke-linecap:round;stroke-linejoin:round;stroke-miterlimit:10;stroke-dasharray:none;stroke-opacity:1"
           id="path1293" />
      </g>
      <g
         id="g1295"
         transform="matrix(1.1202213,0,0,-1.1202213,-15.728957,477.17448)">
        <path
           d="m 309.007,136.1176 c -1.1617,-1.004 -2.5462,-1.4996 -4.1537,-1.4866 -1.6074,0.013 -3.1661,0.6219 -4.6761,1.8267 -1.51,1.2048 -2.9897,2.7718 -4.4392,4.7009 -1.4494,1.9292 -2.6625,4.7789 -3.6392,8.5492 -0.9766,3.7703 -1.0841,6.9577 -0.3223,9.5623 0.7618,2.6045 2.3799,4.6122 4.8542,6.023 2.4744,1.4108 4.9258,2.1735 7.3543,2.288 3.5252,0.1662 7.6977,-1.6575 12.5175,-5.4711"
           style="fill:none;stroke:#fcfcfc;stroke-width:10.3937;stroke-linecap:round;stroke-linejoin:round;stroke-miterlimit:10;stroke-dasharray:none;stroke-opacity:1"
           id="path1297" />
      </g>
      <g
         id="g1299"
         transform="matrix(1.1202213,0,0,-1.1202213,-15.728957,477.17448)">
        <path
           d="m 339.2539,112.4503 c 0.053,-1.3853 0.4446,-2.5442 1.1748,-3.4769 0.4954,-0.6328 1.2231,-1.1304 2.1829,-1.4929 0.9598,-0.3625 2.063,-0.4887 3.3096,-0.3787 1.2465,0.1101 2.4451,0.8821 3.5955,2.316 1.1505,1.434 2.0282,3.8252 2.633,7.1736 0.6048,3.3484 0.7296,7.9961 0.3742,13.943 -0.3554,5.947 -1.3087,12.2399 -2.8598,18.8789 -1.5512,6.6391 -2.931,11.8232 -4.1397,15.5525 -1.2086,3.7292 -2.2777,6.0496 -3.2072,6.9612 -1.3357,1.3098 -3.1965,1.4347 -5.5825,0.3746"
           style="fill:none;stroke:#fcfcfc;stroke-width:10.3937;stroke-linecap:round;stroke-linejoin:round;stroke-miterlimit:10;stroke-dasharray:none;stroke-opacity:1"
           id="path1301" />
      </g>
    </g>
    <g
       id="g25225"
       inkscape:label="vernier caliper"
       transform="matrix(1.0725766,0,0,1.0725766,290.22761,-302.15733)">
      <g
         id="g1303"
         transform="matrix(1.1202213,0,0,-1.1202213,-15.728957,477.17448)">
        <path
           d="m 1082.196,838.501 23.888,39.4208 69.665,39.3499"
           style="fill:none;stroke:#fcfcfc;stroke-width:10.3937;stroke-linecap:round;stroke-linejoin:round;stroke-miterlimit:10;stroke-dasharray:none;stroke-opacity:1"
           id="path1305" />
      </g>
      <g
         id="g1307"
         transform="matrix(1.1202213,0,0,-1.1202213,-15.728957,477.17448)">
        <path
           d="m 1127.973,826.0052 47.776,91.2665"
           style="fill:none;stroke:#fcfcfc;stroke-width:10.3937;stroke-linecap:round;stroke-linejoin:round;stroke-miterlimit:10;stroke-dasharray:none;stroke-opacity:1"
           id="path1309" />
      </g>
      <g
         id="g1311"
         transform="matrix(1.1202213,0,0,-1.1202213,-15.728957,477.17448)">
        <path
           d="m 1166.885,808.1104 48.12,91.8794"
           style="fill:none;stroke:#fcfcfc;stroke-width:10.3937;stroke-linecap:round;stroke-linejoin:round;stroke-miterlimit:10;stroke-dasharray:none;stroke-opacity:1"
           id="path1313" />
      </g>
      <g
         id="g1315"
         transform="matrix(1.1202213,0,0,-1.1202213,-15.728957,477.17448)">
        <path
           d="m 1215.005,899.9898 10.944,-65.1196 -18.841,-51.7514"
           style="fill:none;stroke:#fcfcfc;stroke-width:10.3937;stroke-linecap:round;stroke-linejoin:round;stroke-miterlimit:10;stroke-dasharray:none;stroke-opacity:1"
           id="path1317" />
      </g>
      <g
         id="g1319"
         transform="matrix(1.1202213,0,0,-1.1202213,-15.728957,477.17448)">
        <path
           d="m 1127.973,826.0052 38.912,-17.8948"
           style="fill:none;stroke:#fcfcfc;stroke-width:10.3937;stroke-linecap:round;stroke-linejoin:round;stroke-miterlimit:10;stroke-dasharray:none;stroke-opacity:1"
           id="path1321" />
      </g>
      <g
         id="g1323"
         transform="matrix(1.1202213,0,0,-1.1202213,-15.728957,477.17448)">
        <path
           d="m 1082.196,838.501 -23.626,-38.8076 25.101,-9.2893 -19.366,-47.2247"
           style="fill:none;stroke:#fcfcfc;stroke-width:10.3937;stroke-linecap:round;stroke-linejoin:round;stroke-miterlimit:10;stroke-dasharray:none;stroke-opacity:1"
           id="path1325" />
      </g>
      <g
         id="g1327"
         transform="matrix(1.1202213,0,0,-1.1202213,-15.728957,477.17448)">
        <path
           d="m 1064.305,743.1794 38.241,38.2417"
           style="fill:none;stroke:#fcfcfc;stroke-width:10.3937;stroke-linecap:round;stroke-linejoin:round;stroke-miterlimit:10;stroke-dasharray:none;stroke-opacity:1"
           id="path1329" />
      </g>
      <g
         id="g1331"
         transform="matrix(1.1202213,0,0,-1.1202213,-15.728957,477.17448)">
        <path
           d="M 1154.548,758.0093 1415.905,634.3716"
           style="fill:none;stroke:#fcfcfc;stroke-width:10.3937;stroke-linecap:round;stroke-linejoin:round;stroke-miterlimit:10;stroke-dasharray:none;stroke-opacity:1"
           id="path1333" />
      </g>
      <g
         id="g1335"
         transform="matrix(1.1202213,0,0,-1.1202213,-15.728957,477.17448)">
        <path
           d="M 1207.108,783.1188 1433.272,669.8786"
           style="fill:none;stroke:#fcfcfc;stroke-width:10.3937;stroke-linecap:round;stroke-linejoin:round;stroke-miterlimit:10;stroke-dasharray:none;stroke-opacity:1"
           id="path1337" />
      </g>
      <g
         id="g1339"
         transform="matrix(1.1202213,0,0,-1.1202213,-15.728957,477.17448)">
        <path
           d="m 1415.905,634.3716 c 0.669,12.5378 6.458,24.3734 17.367,35.507"
           style="fill:none;stroke:#fcfcfc;stroke-width:10.3937;stroke-linecap:round;stroke-linejoin:round;stroke-miterlimit:10;stroke-dasharray:none;stroke-opacity:1"
           id="path1341" />
      </g>
      <g
         id="g1343"
         transform="matrix(1.1202213,0,0,-1.1202213,-15.728957,477.17448)">
        <path
           d="m 1425.375,645.052 54.362,-25.0859 -56.279,35.2476"
           style="fill:none;stroke:#fcfcfc;stroke-width:10.3937;stroke-linecap:round;stroke-linejoin:round;stroke-miterlimit:10;stroke-dasharray:none;stroke-opacity:1"
           id="path1345" />
      </g>
      <g
         id="g1347"
         transform="matrix(1.1202213,0,0,-1.1202213,-15.728957,477.17448)">
        <path
           d="m 1102.546,781.4211 9.515,-8.2855 v -53.108 l 20.146,46.6607 22.341,-8.679"
           style="fill:none;stroke:#fcfcfc;stroke-width:10.3937;stroke-linecap:round;stroke-linejoin:round;stroke-miterlimit:10;stroke-dasharray:none;stroke-opacity:1"
           id="path1349" />
      </g>
    </g>
  </g>
</svg>
